<svg width="553" height="307" viewBox="0 0 553 307" fill="none" xmlns="http://www.w3.org/2000/svg">
<mask id="path-1-outside-1_37_498" maskUnits="userSpaceOnUse" x="4" y="35" width="547" height="169" fill="black">
<rect fill="white" x="4" y="35" width="547" height="169"/>
<path d="M53.6 202C31.4 202 6.2 186.2 6.2 153.8C6.2 119.8 32.8 98.6 58.8 98.6C85.8 98.6 100.2 117.2 100.2 134.6H24.4C24.2 136.8 24 138.8 24 141C24 167.2 40 185.8 65.4 185.8C80.2 185.8 91.6 179.4 100 170L101.8 172C92.6 186 76.8 202 53.6 202ZM24.6 131.8H80C77.4 115.4 66.4 102.4 52.6 102.2C35.6 102 27 116.2 24.6 131.8ZM114.925 123.4C109.325 110.2 105.125 104.8 100.725 102.8V100H134.925V102.8C128.325 105 131.125 110.2 136.925 123.4L160.725 179.6L182.325 123.8C187.325 110.2 185.925 104.4 179.125 102.8V100H200.525V102.8C194.725 104.8 190.725 110.2 185.525 123.8L156.325 200H146.925L114.925 123.4ZM250.811 202C224.811 202 197.411 186.6 197.411 152.6C197.411 120.2 223.411 98.6 250.811 98.6C275.611 98.6 304.011 113.2 304.011 148.4C304.011 182.6 274.411 202 250.811 202ZM217.411 137.6C217.411 161.2 231.411 197.6 257.811 197.6C277.411 197.6 283.811 180.6 283.811 163.6C283.811 138.2 266.411 100 240.611 102.6C223.211 104.4 217.411 120.4 217.411 137.6ZM316.352 200V197.2C322.952 195 324.352 189 324.352 174.6V68.6C324.352 56.8 321.352 54.8 316.352 52.6V49.8L342.752 38.2L344.752 39.8V174.6C344.752 189 346.152 195 352.752 197.2V200H316.352ZM369.417 123.4C363.817 110.2 359.617 104.8 355.217 102.8V100H389.417V102.8C382.817 105 385.617 110.2 391.417 123.4L415.217 179.6L436.817 123.8C441.817 110.2 440.417 104.4 433.617 102.8V100H455.017V102.8C449.217 104.8 445.217 110.2 440.017 123.8L410.817 200H401.417L369.417 123.4ZM499.303 202C477.103 202 451.903 186.2 451.903 153.8C451.903 119.8 478.503 98.6 504.503 98.6C531.503 98.6 545.903 117.2 545.903 134.6H470.103C469.903 136.8 469.703 138.8 469.703 141C469.703 167.2 485.703 185.8 511.103 185.8C525.903 185.8 537.303 179.4 545.703 170L547.503 172C538.303 186 522.503 202 499.303 202ZM470.303 131.8H525.703C523.103 115.4 512.103 102.4 498.303 102.2C481.303 102 472.703 116.2 470.303 131.8Z"/>
</mask>
<path d="M53.6 202C31.4 202 6.2 186.2 6.2 153.8C6.2 119.8 32.8 98.6 58.8 98.6C85.8 98.6 100.2 117.2 100.2 134.6H24.4C24.2 136.8 24 138.8 24 141C24 167.2 40 185.8 65.4 185.8C80.2 185.8 91.6 179.4 100 170L101.8 172C92.6 186 76.8 202 53.6 202ZM24.6 131.8H80C77.4 115.4 66.4 102.4 52.6 102.2C35.6 102 27 116.2 24.6 131.8ZM114.925 123.4C109.325 110.2 105.125 104.8 100.725 102.8V100H134.925V102.8C128.325 105 131.125 110.2 136.925 123.4L160.725 179.6L182.325 123.8C187.325 110.2 185.925 104.4 179.125 102.8V100H200.525V102.8C194.725 104.8 190.725 110.2 185.525 123.8L156.325 200H146.925L114.925 123.4ZM250.811 202C224.811 202 197.411 186.6 197.411 152.6C197.411 120.2 223.411 98.6 250.811 98.6C275.611 98.6 304.011 113.2 304.011 148.4C304.011 182.6 274.411 202 250.811 202ZM217.411 137.6C217.411 161.2 231.411 197.6 257.811 197.6C277.411 197.6 283.811 180.6 283.811 163.6C283.811 138.2 266.411 100 240.611 102.6C223.211 104.4 217.411 120.4 217.411 137.6ZM316.352 200V197.2C322.952 195 324.352 189 324.352 174.6V68.6C324.352 56.8 321.352 54.8 316.352 52.6V49.8L342.752 38.2L344.752 39.8V174.6C344.752 189 346.152 195 352.752 197.2V200H316.352ZM369.417 123.4C363.817 110.2 359.617 104.8 355.217 102.8V100H389.417V102.8C382.817 105 385.617 110.2 391.417 123.4L415.217 179.6L436.817 123.8C441.817 110.2 440.417 104.4 433.617 102.8V100H455.017V102.8C449.217 104.8 445.217 110.2 440.017 123.8L410.817 200H401.417L369.417 123.4ZM499.303 202C477.103 202 451.903 186.2 451.903 153.8C451.903 119.8 478.503 98.6 504.503 98.6C531.503 98.6 545.903 117.2 545.903 134.6H470.103C469.903 136.8 469.703 138.8 469.703 141C469.703 167.2 485.703 185.8 511.103 185.8C525.903 185.8 537.303 179.4 545.703 170L547.503 172C538.303 186 522.503 202 499.303 202ZM470.303 131.8H525.703C523.103 115.4 512.103 102.4 498.303 102.2C481.303 102 472.703 116.2 470.303 131.8Z" fill="white"/>
<path d="M100.2 134.6V136.6H102.2V134.6H100.2ZM24.4 134.6V132.6H22.5736L22.4082 134.419L24.4 134.6ZM100 170L101.487 168.662L99.9947 167.004L98.5087 168.667L100 170ZM101.8 172L103.471 173.098L104.319 171.809L103.287 170.662L101.8 172ZM24.6 131.8L22.6233 131.496L22.2688 133.8H24.6V131.8ZM80 131.8V133.8H82.342L81.9753 131.487L80 131.8ZM52.6 102.2L52.629 100.2L52.6235 100.2L52.6 102.2ZM53.6 200C32.2602 200 8.2 184.866 8.2 153.8H4.2C4.2 187.534 30.5398 204 53.6 204V200ZM8.2 153.8C8.2 120.972 33.8361 100.6 58.8 100.6V96.6C31.7639 96.6 4.2 118.628 4.2 153.8H8.2ZM58.8 100.6C84.7366 100.6 98.2 118.345 98.2 134.6H102.2C102.2 116.055 86.8634 96.6 58.8 96.6V100.6ZM100.2 132.6H24.4V136.6H100.2V132.6ZM22.4082 134.419C22.2108 136.59 22 138.69 22 141H26C26 138.91 26.1892 137.01 26.3918 134.781L22.4082 134.419ZM22 141C22 154.502 26.1261 166.21 33.6924 174.567C41.2774 182.945 52.1827 187.8 65.4 187.8V183.8C53.2173 183.8 43.4226 179.355 36.6576 171.883C29.8739 164.39 26 153.698 26 141H22ZM65.4 187.8C80.8511 187.8 92.7699 181.092 101.491 171.333L98.5087 168.667C90.4301 177.708 79.5489 183.8 65.4 183.8V187.8ZM98.5134 171.338L100.313 173.338L103.287 170.662L101.487 168.662L98.5134 171.338ZM100.129 170.902C91.0598 184.702 75.7847 200 53.6 200V204C77.8153 204 94.1402 187.298 103.471 173.098L100.129 170.902ZM24.6 133.8H80V129.8H24.6V133.8ZM81.9753 131.487C79.295 114.58 67.7984 100.42 52.629 100.2L52.571 104.2C65.0016 104.38 75.505 116.22 78.0247 132.113L81.9753 131.487ZM52.6235 100.2C43.4802 100.093 36.5224 103.89 31.5903 109.793C26.7101 115.633 23.8589 123.465 22.6233 131.496L26.5767 132.104C27.7411 124.535 30.3899 117.467 34.6597 112.357C38.8776 107.31 44.7198 104.107 52.5765 104.2L52.6235 100.2ZM114.925 123.4L116.77 122.629L116.766 122.619L114.925 123.4ZM100.725 102.8H98.725V104.088L99.8974 104.621L100.725 102.8ZM100.725 100V98H98.725V100H100.725ZM134.925 100H136.925V98H134.925V100ZM134.925 102.8L135.557 104.697L136.925 104.242V102.8H134.925ZM136.925 123.4L138.767 122.62L138.761 122.608L138.756 122.595L136.925 123.4ZM160.725 179.6L158.883 180.38L160.808 184.925L162.59 180.322L160.725 179.6ZM182.325 123.8L184.19 124.522L184.196 124.506L184.202 124.49L182.325 123.8ZM179.125 102.8H177.125V104.384L178.667 104.747L179.125 102.8ZM179.125 100V98H177.125V100H179.125ZM200.525 100H202.525V98H200.525V100ZM200.525 102.8L201.177 104.691L202.525 104.226V102.8H200.525ZM185.525 123.8L187.393 124.516L187.393 124.514L185.525 123.8ZM156.325 200V202H157.7L158.193 200.716L156.325 200ZM146.925 200L145.08 200.771L145.593 202H146.925V200ZM116.766 122.619C111.18 109.452 106.734 103.334 101.553 100.979L99.8974 104.621C103.516 106.266 107.47 110.948 113.084 124.181L116.766 122.619ZM102.725 102.8V100H98.725V102.8H102.725ZM100.725 102H134.925V98H100.725V102ZM132.925 100V102.8H136.925V100H132.925ZM134.293 100.903C132.409 101.531 130.821 102.494 129.902 104.096C128.989 105.689 128.969 107.513 129.309 109.341C129.649 111.168 130.404 113.284 131.387 115.681C132.375 118.089 133.656 120.933 135.094 124.205L138.756 122.595C137.294 119.267 136.05 116.511 135.088 114.163C134.121 111.803 133.501 110.007 133.241 108.609C132.981 107.212 133.136 106.499 133.373 106.085C133.604 105.681 134.141 105.169 135.557 104.697L134.293 100.903ZM135.083 124.18L158.883 180.38L162.567 178.82L138.767 122.62L135.083 124.18ZM162.59 180.322L184.19 124.522L180.46 123.078L158.86 178.878L162.59 180.322ZM184.202 124.49C186.717 117.649 187.792 112.368 187.121 108.462C186.774 106.438 185.95 104.731 184.591 103.41C183.25 102.106 181.523 101.31 179.583 100.853L178.667 104.747C180.127 105.09 181.125 105.619 181.803 106.278C182.462 106.919 182.951 107.812 183.179 109.138C183.658 111.932 182.933 116.351 180.448 123.11L184.202 124.49ZM181.125 102.8V100H177.125V102.8H181.125ZM179.125 102H200.525V98H179.125V102ZM198.525 100V102.8H202.525V100H198.525ZM199.873 100.909C193.115 103.24 188.846 109.513 183.657 123.086L187.393 124.514C192.604 110.887 196.335 106.36 201.177 104.691L199.873 100.909ZM183.657 123.084L154.457 199.284L158.193 200.716L187.393 124.516L183.657 123.084ZM156.325 198H146.925V202H156.325V198ZM148.77 199.229L116.77 122.629L113.08 124.171L145.08 200.771L148.77 199.229ZM240.611 102.6L240.41 100.61L240.405 100.611L240.611 102.6ZM250.811 200C238.175 200 225.292 196.253 215.612 188.49C205.989 180.772 199.411 168.998 199.411 152.6H195.411C195.411 170.202 202.533 183.128 213.11 191.61C223.629 200.047 237.447 204 250.811 204V200ZM199.411 152.6C199.411 121.396 224.422 100.6 250.811 100.6V96.6C222.4 96.6 195.411 119.004 195.411 152.6H199.411ZM250.811 100.6C262.855 100.6 275.692 104.151 285.472 111.87C295.188 119.538 302.011 131.407 302.011 148.4H306.011C306.011 130.193 298.634 117.162 287.95 108.73C277.33 100.349 263.567 96.6 250.811 96.6V100.6ZM302.011 148.4C302.011 181.266 273.551 200 250.811 200V204C275.271 204 306.011 183.934 306.011 148.4H302.011ZM215.411 137.6C215.411 149.728 218.992 165.069 225.969 177.433C232.93 189.767 243.566 199.6 257.811 199.6V195.6C245.656 195.6 236.092 187.233 229.453 175.467C222.83 163.731 219.411 149.072 219.411 137.6H215.411ZM257.811 199.6C268.306 199.6 275.438 194.991 279.849 188.047C284.182 181.227 285.811 172.298 285.811 163.6H281.811C281.811 171.902 280.24 179.973 276.473 185.903C272.784 191.709 266.916 195.6 257.811 195.6V199.6ZM285.811 163.6C285.811 150.52 281.353 134.261 273.593 121.557C265.873 108.921 254.466 99.1936 240.41 100.61L240.811 104.59C252.556 103.406 262.749 111.479 270.179 123.643C277.569 135.739 281.811 151.28 281.811 163.6H285.811ZM240.405 100.611C231.015 101.582 224.667 106.442 220.747 113.336C216.884 120.13 215.411 128.82 215.411 137.6H219.411C219.411 129.18 220.838 121.27 224.225 115.314C227.554 109.458 232.806 105.418 240.817 104.589L240.405 100.611ZM316.352 200H314.352V202H316.352V200ZM316.352 197.2L315.719 195.303L314.352 195.758V197.2H316.352ZM316.352 52.6H314.352V53.905L315.546 54.4306L316.352 52.6ZM316.352 49.8L315.547 47.969L314.352 48.4942V49.8H316.352ZM342.752 38.2L344.001 36.6383L343.055 35.8819L341.947 36.369L342.752 38.2ZM344.752 39.8H346.752V38.8387L346.001 38.2382L344.752 39.8ZM352.752 197.2H354.752V195.758L353.384 195.303L352.752 197.2ZM352.752 200V202H354.752V200H352.752ZM318.352 200V197.2H314.352V200H318.352ZM316.984 199.097C318.883 198.464 320.503 197.523 321.825 196.155C323.141 194.792 324.069 193.101 324.727 191.099C326.014 187.183 326.352 181.783 326.352 174.6H322.352C322.352 181.817 321.989 186.617 320.927 189.851C320.409 191.424 319.75 192.545 318.947 193.376C318.15 194.202 317.12 194.836 315.719 195.303L316.984 199.097ZM326.352 174.6V68.6H322.352V174.6H326.352ZM326.352 68.6C326.352 62.6046 325.605 58.6923 323.933 55.9571C322.211 53.1383 319.69 51.884 317.157 50.7694L315.546 54.4306C318.013 55.516 319.493 56.3617 320.52 58.0429C321.598 59.8077 322.352 62.7954 322.352 68.6H326.352ZM318.352 52.6V49.8H314.352V52.6H318.352ZM317.156 51.631L343.556 40.031L341.947 36.369L315.547 47.969L317.156 51.631ZM341.502 39.7617L343.502 41.3617L346.001 38.2382L344.001 36.6383L341.502 39.7617ZM342.752 39.8V174.6H346.752V39.8H342.752ZM342.752 174.6C342.752 181.783 343.089 187.183 344.377 191.099C345.034 193.101 345.962 194.792 347.279 196.155C348.6 197.523 350.22 198.464 352.119 199.097L353.384 195.303C351.983 194.836 350.953 194.202 350.156 193.376C349.353 192.545 348.694 191.424 348.177 189.851C347.114 186.617 346.752 181.817 346.752 174.6H342.752ZM350.752 197.2V200H354.752V197.2H350.752ZM352.752 198H316.352V202H352.752V198ZM369.417 123.4L371.263 122.629L371.258 122.619L369.417 123.4ZM355.217 102.8H353.217V104.088L354.39 104.621L355.217 102.8ZM355.217 100V98H353.217V100H355.217ZM389.417 100H391.417V98H389.417V100ZM389.417 102.8L390.05 104.697L391.417 104.242V102.8H389.417ZM391.417 123.4L393.259 122.62L393.254 122.608L393.248 122.595L391.417 123.4ZM415.217 179.6L413.376 180.38L415.3 184.925L417.082 180.322L415.217 179.6ZM436.817 123.8L438.682 124.522L438.688 124.506L438.694 124.49L436.817 123.8ZM433.617 102.8H431.617V104.384L433.159 104.747L433.617 102.8ZM433.617 100V98H431.617V100H433.617ZM455.017 100H457.017V98H455.017V100ZM455.017 102.8L455.669 104.691L457.017 104.226V102.8H455.017ZM440.017 123.8L441.885 124.516L441.885 124.514L440.017 123.8ZM410.817 200V202H412.193L412.685 200.716L410.817 200ZM401.417 200L399.572 200.771L400.085 202H401.417V200ZM371.258 122.619C365.672 109.452 361.226 103.334 356.045 100.979L354.39 104.621C358.009 106.266 361.962 110.948 367.576 124.181L371.258 122.619ZM357.217 102.8V100H353.217V102.8H357.217ZM355.217 102H389.417V98H355.217V102ZM387.417 100V102.8H391.417V100H387.417ZM388.785 100.903C386.901 101.531 385.313 102.494 384.395 104.096C383.482 105.689 383.461 107.513 383.801 109.341C384.141 111.168 384.897 113.284 385.879 115.681C386.867 118.089 388.149 120.933 389.586 124.205L393.248 122.595C391.786 119.267 390.543 116.511 389.58 114.163C388.613 111.803 387.994 110.007 387.733 108.609C387.473 107.212 387.628 106.499 387.865 106.085C388.096 105.681 388.633 105.169 390.05 104.697L388.785 100.903ZM389.576 124.18L413.376 180.38L417.059 178.82L393.259 122.62L389.576 124.18ZM417.082 180.322L438.682 124.522L434.952 123.078L413.352 178.878L417.082 180.322ZM438.694 124.49C441.21 117.649 442.284 112.368 441.613 108.462C441.266 106.438 440.442 104.731 439.083 103.41C437.742 102.106 436.015 101.31 434.075 100.853L433.159 104.747C434.619 105.09 435.618 105.619 436.295 106.278C436.954 106.919 437.443 107.812 437.671 109.138C438.151 111.932 437.425 116.351 434.94 123.11L438.694 124.49ZM435.617 102.8V100H431.617V102.8H435.617ZM433.617 102H455.017V98H433.617V102ZM453.017 100V102.8H457.017V100H453.017ZM454.365 100.909C447.607 103.24 443.339 109.513 438.149 123.086L441.885 124.514C447.096 110.887 450.827 106.36 455.669 104.691L454.365 100.909ZM438.15 123.084L408.95 199.284L412.685 200.716L441.885 124.516L438.15 123.084ZM410.817 198H401.417V202H410.817V198ZM403.263 199.229L371.263 122.629L367.572 124.171L399.572 200.771L403.263 199.229ZM545.903 134.6V136.6H547.903V134.6H545.903ZM470.103 134.6V132.6H468.277L468.111 134.419L470.103 134.6ZM545.703 170L547.19 168.662L545.698 167.004L544.212 168.667L545.703 170ZM547.503 172L549.175 173.098L550.022 171.809L548.99 170.662L547.503 172ZM470.303 131.8L468.326 131.496L467.972 133.8H470.303V131.8ZM525.703 131.8V133.8H528.045L527.678 131.487L525.703 131.8ZM498.303 102.2L498.332 100.2L498.327 100.2L498.303 102.2ZM499.303 200C477.963 200 453.903 184.866 453.903 153.8H449.903C449.903 187.534 476.243 204 499.303 204V200ZM453.903 153.8C453.903 120.972 479.539 100.6 504.503 100.6V96.6C477.467 96.6 449.903 118.628 449.903 153.8H453.903ZM504.503 100.6C530.44 100.6 543.903 118.345 543.903 134.6H547.903C547.903 116.055 532.566 96.6 504.503 96.6V100.6ZM545.903 132.6H470.103V136.6H545.903V132.6ZM468.111 134.419C467.914 136.59 467.703 138.69 467.703 141H471.703C471.703 138.91 471.892 137.01 472.095 134.781L468.111 134.419ZM467.703 141C467.703 154.502 471.829 166.21 479.396 174.567C486.98 182.945 497.886 187.8 511.103 187.8V183.8C498.92 183.8 489.126 179.355 482.361 171.883C475.577 164.39 471.703 153.698 471.703 141H467.703ZM511.103 187.8C526.554 187.8 538.473 181.092 547.194 171.333L544.212 168.667C536.133 177.708 525.252 183.8 511.103 183.8V187.8ZM544.217 171.338L546.017 173.338L548.99 170.662L547.19 168.662L544.217 171.338ZM545.832 170.902C536.763 184.702 521.488 200 499.303 200V204C523.518 204 539.843 187.298 549.175 173.098L545.832 170.902ZM470.303 133.8H525.703V129.8H470.303V133.8ZM527.678 131.487C524.998 114.58 513.502 100.42 498.332 100.2L498.274 104.2C510.705 104.38 521.208 116.22 523.728 132.113L527.678 131.487ZM498.327 100.2C489.183 100.093 482.226 103.89 477.293 109.793C472.413 115.633 469.562 123.465 468.326 131.496L472.28 132.104C473.444 124.535 476.093 117.467 480.363 112.357C484.581 107.31 490.423 104.107 498.28 104.2L498.327 100.2Z" fill="white" mask="url(#path-1-outside-1_37_498)"/>
<path d="M255.935 277V237H269.45C272.575 237 275.14 237.534 277.146 238.602C279.151 239.656 280.635 241.108 281.599 242.957C282.562 244.806 283.044 246.909 283.044 249.266C283.044 251.622 282.562 253.712 281.599 255.535C280.635 257.358 279.157 258.79 277.165 259.832C275.173 260.861 272.627 261.375 269.528 261.375H258.591V257H269.372C271.507 257 273.226 256.687 274.528 256.062C275.843 255.437 276.794 254.552 277.38 253.406C277.979 252.247 278.278 250.867 278.278 249.266C278.278 247.664 277.979 246.264 277.38 245.066C276.781 243.868 275.824 242.944 274.509 242.293C273.194 241.629 271.455 241.297 269.294 241.297H260.778V277H255.935ZM274.763 259.031L284.606 277H278.981L269.294 259.031H274.763ZM291.115 277V237H315.256V241.297H295.959V254.812H314.006V259.109H295.959V272.703H315.568V277H291.115ZM356.174 249.5H351.33C351.044 248.107 350.542 246.883 349.826 245.828C349.123 244.773 348.264 243.888 347.248 243.172C346.245 242.443 345.132 241.896 343.908 241.531C342.684 241.167 341.408 240.984 340.08 240.984C337.658 240.984 335.464 241.596 333.498 242.82C331.545 244.044 329.989 245.848 328.83 248.23C327.684 250.613 327.111 253.536 327.111 257C327.111 260.464 327.684 263.387 328.83 265.77C329.989 268.152 331.545 269.956 333.498 271.18C335.464 272.404 337.658 273.016 340.08 273.016C341.408 273.016 342.684 272.833 343.908 272.469C345.132 272.104 346.245 271.564 347.248 270.848C348.264 270.118 349.123 269.227 349.826 268.172C350.542 267.104 351.044 265.88 351.33 264.5H356.174C355.809 266.544 355.145 268.374 354.182 269.988C353.218 271.603 352.02 272.977 350.588 274.109C349.156 275.229 347.548 276.082 345.764 276.668C343.993 277.254 342.098 277.547 340.08 277.547C336.669 277.547 333.635 276.714 330.979 275.047C328.322 273.38 326.232 271.01 324.709 267.937C323.186 264.865 322.424 261.219 322.424 257C322.424 252.781 323.186 249.135 324.709 246.062C326.232 242.99 328.322 240.62 330.979 238.953C333.635 237.286 336.669 236.453 340.08 236.453C342.098 236.453 343.993 236.746 345.764 237.332C347.548 237.918 349.156 238.777 350.588 239.91C352.02 241.03 353.218 242.397 354.182 244.012C355.145 245.613 355.809 247.443 356.174 249.5ZM364.001 277V237H377.517C380.642 237 383.207 237.534 385.212 238.602C387.217 239.656 388.701 241.108 389.665 242.957C390.629 244.806 391.11 246.909 391.11 249.266C391.11 251.622 390.629 253.712 389.665 255.535C388.701 257.358 387.224 258.79 385.231 259.832C383.239 260.861 380.694 261.375 377.595 261.375H366.657V257H377.438C379.574 257 381.293 256.687 382.595 256.062C383.91 255.437 384.86 254.552 385.446 253.406C386.045 252.247 386.345 250.867 386.345 249.266C386.345 247.664 386.045 246.264 385.446 245.066C384.847 243.868 383.89 242.944 382.575 242.293C381.26 241.629 379.522 241.297 377.36 241.297H368.845V277H364.001ZM382.829 259.031L392.673 277H387.048L377.36 259.031H382.829ZM425.432 237H430.275V263.484C430.275 266.219 429.631 268.66 428.342 270.809C427.066 272.944 425.262 274.63 422.932 275.867C420.601 277.091 417.867 277.703 414.729 277.703C411.59 277.703 408.856 277.091 406.525 275.867C404.195 274.63 402.385 272.944 401.096 270.809C399.82 268.66 399.182 266.219 399.182 263.484V237H404.025V263.094C404.025 265.047 404.455 266.785 405.314 268.309C406.174 269.819 407.398 271.01 408.986 271.883C410.588 272.742 412.502 273.172 414.729 273.172C416.955 273.172 418.869 272.742 420.471 271.883C422.072 271.01 423.296 269.819 424.143 268.309C425.002 266.785 425.432 265.047 425.432 263.094V237ZM444.792 237V277H439.948V237H444.792ZM452.316 241.297V237H482.316V241.297H469.738V277H464.895V241.297H452.316ZM489.792 277V237H513.933V241.297H494.636V254.812H512.683V259.109H494.636V272.703H514.245V277H489.792ZM522.663 277V237H536.179C539.304 237 541.869 237.534 543.874 238.602C545.879 239.656 547.364 241.108 548.327 242.957C549.291 244.806 549.772 246.909 549.772 249.266C549.772 251.622 549.291 253.712 548.327 255.535C547.364 257.358 545.886 258.79 543.894 259.832C541.901 260.861 539.356 261.375 536.257 261.375H525.319V257H536.101C538.236 257 539.955 256.687 541.257 256.062C542.572 255.437 543.522 254.552 544.108 253.406C544.707 252.247 545.007 250.867 545.007 249.266C545.007 247.664 544.707 246.264 544.108 245.066C543.509 243.868 542.552 242.944 541.237 242.293C539.922 241.629 538.184 241.297 536.022 241.297H527.507V277H522.663ZM541.491 259.031L551.335 277H545.71L536.022 259.031H541.491Z" fill="white"/>
</svg>
